# xmcd CD database file
# Copyright (C) 1993-1996 Ti Kan
#
# Track frame offsets:
#	182
#	17737
#	35562
#	52695
#	68325
#	87945
#	106855
#	119755
#	137985
#	156367
#	173112
#	199345
#	217095
#
# Disc length: 3142 seconds
#
# Revision: 1
# Processed by: cddbd v1.4b41PL1 Copyright (c) Steve Scherf et al.
# Submitted via: EasyCD2 v3.00 - Copyright (c) 1997 Greg Leichner
#
DISCID=b60c440d
DTITLE=Philippe Swan - Hip Pop
DYEAR=1900
DGENRE=
TTITLE0=Je Plane
TTITLE1=The Policy Of Love
TTITLE2=Quand Didi Partie
TTITLE3=Flash
TTITLE4=Zazou's Song
TTITLE5=Comme Une Offrande a Vishnu
TTITLE6=Fille De Magazine
TTITLE7=Dieu Est Rock
TTITLE8=Ton Loulou
TTITLE9=Voyeur
TTITLE10=Blues Sur Saturne Un Soir De Juin
TTITLE11=Love Love Love
TTITLE12=The Policy Of Love (version acoustique)
EXTD=
EXTT0=
EXTT1=
EXTT2=
EXTT3=
EXTT4=
EXTT5=
EXTT6=
EXTT7=
EXTT8=
EXTT9=
EXTT10=
EXTT11=
EXTT12=
PLAYORDER=
